<svg height="120" viewBox="0 0 544.295 120" width="544.295" xmlns="http://www.w3.org/2000/svg"><path d="m132.985 87.344a6.157 6.157 0 0 1 -1.8 4.354l-27.576 27.576a2.463 2.463 0 0 1 -4.2-1.741v-61.791l33.2-33.015h.383z" fill="#e34b5f"/><path d="m110.979.721a2.463 2.463 0 0 0 -3.483 0l-41 41h-.569v46.279l.569 1.216 32.904-32.905 33.584-33.584z" fill="#e7ce9c"/><path d="m0 87.344a6.157 6.157 0 0 0 1.8 4.356l27.576 27.576a2.463 2.463 0 0 0 4.2-1.741v-61.793l-33.193-33.015h-.383z" fill="#1e7889"/><path d="m25.489.721a2.463 2.463 0 0 0 -3.483 0l-22.006 22.006 33.584 33.584 32.908 32.909v-47.495z" fill="#97baa6"/><g fill="#fff"><path d="m174.256 87.344v-61.651h16.417v8.266c3.789-6.314 9.3-9.414 16.762-9.414s13.088 3.215 17.106 9.873c6.429-6.774 11.366-9.873 19.058-9.873 13.892 0 21.7 7.807 21.7 22.158v40.641h-17.68v-33.409c0-8.611-1.837-12.514-8.611-12.514-6.888 0-10.562 4.248-10.562 12.514v33.409h-17.8v-33.409c0-8.611-1.837-12.514-8.611-12.514-6.889 0-10.562 4.248-10.562 12.514v33.409z"/><path d="m287.121 33.729a32.545 32.545 0 0 1 55.679 22.388c0 9.3-3.1 16.991-9.3 23.191a31.961 31.961 0 0 1 -23.421 9.644c-9.414 0-16.991-3.215-23.306-9.873a32.218 32.218 0 0 1 -9.07-22.732 31.6 31.6 0 0 1 9.418-22.618zm23.076 38c8.037 0 14.581-6.774 14.581-15.155 0-8.5-6.544-15.269-14.581-15.269s-14.58 6.774-14.58 15.269c0 8.383 6.659 15.156 14.583 15.156z"/><path d="m355.212 87.344v-61.651h17.221l-.23 8.266c3.789-6.2 9.529-9.414 17.68-9.414 12.744 0 21.01 8.036 21.01 22.158v40.641h-18.14v-33.409c0-8.611-1.837-12.514-8.84-12.514-7.118 0-10.907 4.248-10.907 12.514v33.409z"/><path d="m488.613 33.729a32.545 32.545 0 0 1 55.682 22.388c0 9.3-3.1 16.991-9.3 23.191a31.962 31.962 0 0 1 -23.421 9.644c-9.414 0-16.992-3.215-23.306-9.873a32.219 32.219 0 0 1 -9.07-22.732 31.6 31.6 0 0 1 9.415-22.618zm23.076 38c8.036 0 14.581-6.774 14.581-15.155 0-8.5-6.544-15.269-14.581-15.269s-14.581 6.774-14.581 15.269c.001 8.383 6.66 15.156 14.582 15.156z"/><path d="m424.533 87.344v-12.859l25.372-32.835h-25.372v-15.957h45.808v14.58l-22.387 31.113h22.846v15.958z"/></g></svg>