<svg xmlns="http://www.w3.org/2000/svg" viewBox="0 0 199 176"><defs><style>.cls-1{fill:#43b7ff;}.cls-2{fill:#fff;}.cls-3{fill:#ff7c3b;}.cls-4{fill:#764cd3;}.cls-5{fill:#ffe340;}</style></defs><title>Asset 1</title><g id="Layer_2" data-name="Layer 2"><g id="Layer_1-2" data-name="Layer 1"><circle class="cls-1" cx="79" cy="36" r="36"/><circle class="cls-2" cx="63.33" cy="30.49" r="5.08"/><circle class="cls-2" cx="90.01" cy="30.92" r="5.08"/><circle class="cls-3" cx="46.75" cy="98.25" r="46.75"/><circle class="cls-2" cx="31.35" cy="87.25" r="6.6"/><circle class="cls-2" cx="66" cy="87.8" r="6.6"/><path class="cls-2" d="M38.19,125.19a36.38,36.38,0,0,0,26.92-4.11c3.66-2.15.34-7.85-3.33-5.7a29.42,29.42,0,0,1-21.84,3.45c-4.13-.94-5.9,5.42-1.75,6.36Z"/><circle class="cls-4" cx="151.5" cy="69.5" r="47.5"/><circle class="cls-2" cx="135.29" cy="62.24" r="6.71"/><circle class="cls-2" cx="170.5" cy="62.79" r="6.71"/><path class="cls-2" d="M151.35,92.75a24.36,24.36,0,0,0,21.29-10.62c2.48-3.54-3.33-6.9-5.79-3.39a17.54,17.54,0,0,1-15.5,7.31c-4.31-.23-4.3,6.48,0,6.7Z"/><circle class="cls-5" cx="122.5" cy="133.5" r="42.5"/><circle class="cls-2" cx="104" cy="127" r="6"/><circle class="cls-2" cx="135.5" cy="127.5" r="6"/></g></g></svg>