<svg xmlns="http://www.w3.org/2000/svg" viewBox="0 0 174 174"><defs><style>.cls-1{fill:#ffe300;}.cls-2{fill:#ff7c3b;}.cls-3,.cls-4{fill:none;stroke-miterlimit:10;}.cls-3{stroke:#ff7c3b;stroke-width:3.39px;}.cls-4{stroke:#fff;stroke-linecap:round;stroke-width:5px;}</style></defs><title>Asset 5</title><g id="Layer_2" data-name="Layer 2"><g id="Layer_1-2" data-name="Layer 1"><circle class="cls-1" cx="87" cy="87" r="50.46"/><path class="cls-2" d="M87.19,149.47h13.59c1.76,0,2.5,1.26,1.65,2.8l-3.69,6.64-3.11,5.6-3.69,6.64c-.85,1.54-2.25,1.54-3.11,0l-3.69-6.64-3.1-5.6-3.69-6.64c-.86-1.54-.12-2.8,1.64-2.8Z"/><path class="cls-3" d="M87.19,149.47h13.59c1.76,0,2.5,1.26,1.65,2.8l-3.69,6.64-3.11,5.6-3.69,6.64c-.85,1.54-2.25,1.54-3.11,0l-3.69-6.64-3.1-5.6-3.69-6.64c-.86-1.54-.12-2.8,1.64-2.8Z"/><path class="cls-2" d="M131.3,131l4.53-4.53,5.09-5.08c1.24-1.25,2.65-.88,3.14.81l2.09,7.31,1.76,6.15L150,143c.48,1.69-.51,2.68-2.2,2.2l-7.31-2.09-6.15-1.76L127,139.27c-1.69-.48-2.06-1.9-.81-3.14Z"/><path class="cls-3" d="M131.3,131l4.53-4.53,5.09-5.08c1.24-1.25,2.65-.88,3.14.81l2.09,7.31,1.76,6.15L150,143c.48,1.69-.51,2.68-2.2,2.2l-7.31-2.09-6.15-1.76L127,139.27c-1.69-.48-2.06-1.9-.81-3.14Z"/><path class="cls-2" d="M149.47,86.81V73.22c0-1.76,1.26-2.5,2.8-1.65l6.64,3.69,5.6,3.11,6.64,3.69c1.54.85,1.54,2.25,0,3.11l-6.64,3.69-5.6,3.1-6.64,3.69c-1.54.86-2.8.12-2.8-1.64Z"/><path class="cls-3" d="M149.47,86.81V73.22c0-1.76,1.26-2.5,2.8-1.65l6.64,3.69,5.6,3.11,6.64,3.69c1.54.85,1.54,2.25,0,3.11l-6.64,3.69-5.6,3.1-6.64,3.69c-1.54.86-2.8.12-2.8-1.64Z"/><path class="cls-2" d="M131,42.7l-4.53-4.53-5.08-5.09c-1.25-1.24-.88-2.65.81-3.14l7.31-2.09,6.15-1.76L143,24c1.69-.48,2.68.51,2.2,2.2l-2.09,7.31-1.76,6.15L139.27,47c-.48,1.69-1.9,2.06-3.14.81Z"/><path class="cls-3" d="M131,42.7l-4.53-4.53-5.08-5.09c-1.25-1.24-.88-2.65.81-3.14l7.31-2.09,6.15-1.76L143,24c1.69-.48,2.68.51,2.2,2.2l-2.09,7.31-1.76,6.15L139.27,47c-.48,1.69-1.9,2.06-3.14.81Z"/><path class="cls-2" d="M86.81,24.53H73.22c-1.76,0-2.5-1.26-1.65-2.8l3.69-6.64,3.11-5.6,3.69-6.64c.85-1.54,2.25-1.54,3.11,0l3.69,6.64,3.1,5.6,3.69,6.64c.86,1.54.12,2.8-1.64,2.8Z"/><path class="cls-3" d="M86.81,24.53H73.22c-1.76,0-2.5-1.26-1.65-2.8l3.69-6.64,3.11-5.6,3.69-6.64c.85-1.54,2.25-1.54,3.11,0l3.69,6.64,3.1,5.6,3.69,6.64c.86,1.54.12,2.8-1.64,2.8Z"/><path class="cls-2" d="M42.7,43l-4.53,4.53-5.09,5.08c-1.24,1.25-2.65.88-3.14-.81l-2.09-7.31L26.09,38.3,24,31c-.48-1.69.51-2.68,2.2-2.2l7.31,2.09,6.15,1.76L47,34.73c1.69.48,2.06,1.9.81,3.14Z"/><path class="cls-3" d="M42.7,43l-4.53,4.53-5.09,5.08c-1.24,1.25-2.65.88-3.14-.81l-2.09-7.31L26.09,38.3,24,31c-.48-1.69.51-2.68,2.2-2.2l7.31,2.09,6.15,1.76L47,34.73c1.69.48,2.06,1.9.81,3.14Z"/><path class="cls-2" d="M24.53,87.19v13.59c0,1.76-1.26,2.5-2.8,1.65l-6.64-3.69-5.6-3.11L2.85,91.94c-1.54-.85-1.54-2.25,0-3.11l6.64-3.69,5.6-3.1,6.64-3.69c1.54-.86,2.8-.12,2.8,1.64Z"/><path class="cls-3" d="M24.53,87.19v13.59c0,1.76-1.26,2.5-2.8,1.65l-6.64-3.69-5.6-3.11L2.85,91.94c-1.54-.85-1.54-2.25,0-3.11l6.64-3.69,5.6-3.1,6.64-3.69c1.54-.86,2.8-.12,2.8,1.64Z"/><path class="cls-2" d="M43,131.3l4.53,4.53,5.08,5.09c1.25,1.24.88,2.65-.81,3.14l-7.31,2.09-6.15,1.76L31,150c-1.69.48-2.68-.51-2.2-2.2l2.09-7.31,1.76-6.15L34.73,127c.48-1.69,1.9-2.06,3.14-.81Z"/><path class="cls-3" d="M43,131.3l4.53,4.53,5.08,5.09c1.25,1.24.88,2.65-.81,3.14l-7.31,2.09-6.15,1.76L31,150c-1.69.48-2.68-.51-2.2-2.2l2.09-7.31,1.76-6.15L34.73,127c.48-1.69,1.9-2.06,3.14-.81Z"/><line class="cls-4" x1="67.75" y1="71.75" x2="55.75" y2="83.75"/><line class="cls-4" x1="83.75" y1="69.75" x2="71.75" y2="81.75"/></g></g></svg>