<svg xmlns="http://www.w3.org/2000/svg" viewBox="0 0 130.5 133"><defs><style>.cls-1{fill:#ff7c3b;}.cls-2,.cls-4{fill:#43b7ff;}.cls-3{fill:#fff;}.cls-4{stroke:#43b7ff;stroke-linecap:round;stroke-miterlimit:10;stroke-width:5px;}</style></defs><title>Asset 2</title><g id="Layer_2" data-name="Layer 2"><g id="Layer_1-2" data-name="Layer 1"><rect class="cls-1" y="49" width="130.5" height="84" rx="10.52" ry="10.52"/><path class="cls-2" d="M95.23,113.25A8,8,0,0,1,88.31,121S76.72,122.35,54,122.35,19.69,121,19.69,121a8,8,0,0,1-6.92-7.77V68.75A8,8,0,0,1,19.69,61S31.28,59.65,54,59.65,88.31,61,88.31,61a8,8,0,0,1,6.92,7.77Z"/><circle class="cls-3" cx="112" cy="72" r="4.5"/><circle class="cls-3" cx="112.25" cy="91.75" r="4.5"/><circle class="cls-3" cx="112.5" cy="111.5" r="4.5"/><line class="cls-4" x1="58" y1="47" x2="24.5" y2="13.5"/><line class="cls-4" x1="57.5" y1="47" x2="101.5" y2="2.5"/></g></g></svg>